HIERARCHY
ROOT Hips
{
  OFFSET 45.466 37.506 -259.053
  CHANNELS 6 Xposition Yposition Zposition Zrotation Xrotation Yrotation
  JOINT LeftUpLeg
  {
    OFFSET 6.444 -5.555 2.654
    CHANNELS 6 Xposition Yposition Zposition Zrotation Xrotation Yrotation
    JOINT LeftLeg
    {
      OFFSET -0.000 -45.439 0.000
      CHANNELS 6 Xposition Yposition Zposition Zrotation Xrotation Yrotation
      JOINT LeftFoot
      {
        OFFSET -0.000 -44.866 -0.000
        CHANNELS 6 Xposition Yposition Zposition Zrotation Xrotation Yrotation
        End Site
        {
          OFFSET 0.000 -7.812 4.510
        }
      }
    }
  }
  JOINT RightUpLeg
  {
    OFFSET -5.797 -6.124 4.916
    CHANNELS 6 Xposition Yposition Zposition Zrotation Xrotation Yrotation
    JOINT RightLeg
    {
      OFFSET -0.000 -48.747 0.000
      CHANNELS 6 Xposition Yposition Zposition Zrotation Xrotation Yrotation
      JOINT RightFoot
      {
        OFFSET 0.000 -43.129 -0.000
        CHANNELS 6 Xposition Yposition Zposition Zrotation Xrotation Yrotation
        End Site
        {
          OFFSET -0.000 -7.365 4.252
        }
      }
    }
  }
  JOINT Spine
  {
    OFFSET 0.000 5.218 -5.218
    CHANNELS 6 Xposition Yposition Zposition Zrotation Xrotation Yrotation
    JOINT LeftShoulder
    {
      OFFSET -0.000 25.762 0.000
      CHANNELS 6 Xposition Yposition Zposition Zrotation Xrotation Yrotation
      JOINT LeftArm
      {
        OFFSET 15.491 0.000 -0.000
        CHANNELS 6 Xposition Yposition Zposition Zrotation Xrotation Yrotation
        JOINT LeftForeArm
        {
          OFFSET 24.017 0.000 0.000
          CHANNELS 6 Xposition Yposition Zposition Zrotation Xrotation Yrotation
          JOINT LeftHand
          {
            OFFSET 24.803 -0.000 -0.000
            CHANNELS 6 Xposition Yposition Zposition Zrotation Xrotation Yrotation
            JOINT LeftHandThumb1
            {
            OFFSET 4.970 -0.620 3.390
            CHANNELS 6 Xposition Yposition Zposition Zrotation Xrotation Yrotation
              JOINT LeftHandThumb2
              {
              OFFSET 2.150 -0.000 0.000
              CHANNELS 6 Xposition Yposition Zposition Zrotation Xrotation Yrotation
                JOINT LeftHandThumb3
                {
                OFFSET 2.200 -0.000 0.000
                CHANNELS 6 Xposition Yposition Zposition Zrotation Xrotation Yrotation
                  JOINT LeftHandThumb4
                  {
                  OFFSET 1.700 -0.000 0.000
                  CHANNELS 6 Xposition Yposition Zposition Zrotation Xrotation Yrotation
                  }
                }
              }
            }
            JOINT LeftHandIndex1
            {
            OFFSET 8.730 0.680 2.070
            CHANNELS 6 Xposition Yposition Zposition Zrotation Xrotation Yrotation
              JOINT LeftHandIndex2
              {
              OFFSET 2.670 -0.000 0.000
              CHANNELS 6 Xposition Yposition Zposition Zrotation Xrotation Yrotation
                JOINT LeftHandIndex3
                {
                OFFSET 2.130 -0.000 0.000
                CHANNELS 6 Xposition Yposition Zposition Zrotation Xrotation Yrotation
                  JOINT LeftHandIndex4
                  {
                  OFFSET 1.800 -0.000 0.000
                  CHANNELS 6 Xposition Yposition Zposition Zrotation Xrotation Yrotation
                  }
                }
              }
            }
            JOINT LeftHandMiddle1
            {
            OFFSET 9.220 0.670 0.550
            CHANNELS 6 Xposition Yposition Zposition Zrotation Xrotation Yrotation
              JOINT LeftHandMiddle2
              {
              OFFSET 2.660 -0.000 0.000
              CHANNELS 6 Xposition Yposition Zposition Zrotation Xrotation Yrotation
                JOINT LeftHandMiddle3
                {
                OFFSET 2.280 -0.000 0.000
                CHANNELS 6 Xposition Yposition Zposition Zrotation Xrotation Yrotation
                  JOINT LeftHandMiddle4
                  {
                  OFFSET 1.500 -0.000 0.000
                  CHANNELS 6 Xposition Yposition Zposition Zrotation Xrotation Yrotation
                  }
                }
              }
            }
            JOINT LeftHandRing1
            {
            OFFSET 9.250 0.670 -1.130
            CHANNELS 6 Xposition Yposition Zposition Zrotation Xrotation Yrotation
              JOINT LeftHandRing2
              {
              OFFSET 2.470 -0.000 0.000
              CHANNELS 6 Xposition Yposition Zposition Zrotation Xrotation Yrotation
                JOINT LeftHandRing3
                {
                OFFSET 2.210 -0.000 0.000
                CHANNELS 6 Xposition Yposition Zposition Zrotation Xrotation Yrotation
                  JOINT LeftHandRing4
                  {
                  OFFSET 1.800 -0.000 0.000
                  CHANNELS 6 Xposition Yposition Zposition Zrotation Xrotation Yrotation
                  }
                }
              }
            }
            JOINT LeftHandPinky1
            {
            OFFSET 9.350 0.660 -2.720
            CHANNELS 6 Xposition Yposition Zposition Zrotation Xrotation Yrotation
              JOINT LeftHandPinky2
              {
              OFFSET 1.630 -0.000 0.000
              CHANNELS 6 Xposition Yposition Zposition Zrotation Xrotation Yrotation
                JOINT LeftHandPinky3
                {
                OFFSET 1.710 -0.000 0.000
                CHANNELS 6 Xposition Yposition Zposition Zrotation Xrotation Yrotation
                  JOINT LeftHandPinky4
                  {
                  OFFSET 1.800 -0.000 0.000
                  CHANNELS 6 Xposition Yposition Zposition Zrotation Xrotation Yrotation
                  }
                }
              }
            }
          }
        }
      }
    }
    JOINT RightShoulder
    {
      OFFSET -0.000 25.762 0.000
      CHANNELS 6 Xposition Yposition Zposition Zrotation Xrotation Yrotation
      JOINT RightArm
      {
        OFFSET -17.826 -0.000 -0.000
        CHANNELS 6 Xposition Yposition Zposition Zrotation Xrotation Yrotation
        JOINT RightForeArm
        {
          OFFSET -24.812 0.000 0.000
          CHANNELS 6 Xposition Yposition Zposition Zrotation Xrotation Yrotation
          JOINT RightHand
          {
            OFFSET -23.467 0.000 -0.000
            CHANNELS 6 Xposition Yposition Zposition Zrotation Xrotation Yrotation
            JOINT RightHandThumb1
            {
            OFFSET -4.970 -0.620 3.390
            CHANNELS 6 Xposition Yposition Zposition Zrotation Xrotation Yrotation
              JOINT RightHandThumb2
              {
              OFFSET -2.150 0.000 0.000
              CHANNELS 6 Xposition Yposition Zposition Zrotation Xrotation Yrotation
                JOINT RightHandThumb3
                {
                OFFSET -2.200 0.000 0.000
                CHANNELS 6 Xposition Yposition Zposition Zrotation Xrotation Yrotation
                  JOINT RightHandThumb4
                  {
                  OFFSET -1.700 0.000 0.000
                  CHANNELS 6 Xposition Yposition Zposition Zrotation Xrotation Yrotation
                  }
                }
              }
            }
            JOINT RightHandIndex1
            {
            OFFSET -8.730 0.680 2.070
            CHANNELS 6 Xposition Yposition Zposition Zrotation Xrotation Yrotation
              JOINT RightHandIndex2
              {
              OFFSET -2.670 0.000 0.000
              CHANNELS 6 Xposition Yposition Zposition Zrotation Xrotation Yrotation
                JOINT RightHandIndex3
                {
                OFFSET -2.130 0.000 0.000
                CHANNELS 6 Xposition Yposition Zposition Zrotation Xrotation Yrotation
                  JOINT RightHandIndex4
                  {
                  OFFSET -1.800 0.000 0.000
                  CHANNELS 6 Xposition Yposition Zposition Zrotation Xrotation Yrotation
                  }
                }
              }
            }
            JOINT RightHandMiddle1
            {
            OFFSET -9.220 0.670 0.550
            CHANNELS 6 Xposition Yposition Zposition Zrotation Xrotation Yrotation
              JOINT RightHandMiddle2
              {
              OFFSET -2.660 0.000 0.000
              CHANNELS 6 Xposition Yposition Zposition Zrotation Xrotation Yrotation
                JOINT RightHandMiddle3
                {
                OFFSET -2.280 0.000 0.000
                CHANNELS 6 Xposition Yposition Zposition Zrotation Xrotation Yrotation
                  JOINT RightHandMiddle4
                  {
                  OFFSET -1.500 0.000 0.000
                  CHANNELS 6 Xposition Yposition Zposition Zrotation Xrotation Yrotation
                  }
                }
              }
            }
            JOINT RightHandRing1
            {
            OFFSET -9.250 0.670 -1.130
            CHANNELS 6 Xposition Yposition Zposition Zrotation Xrotation Yrotation
              JOINT RightHandRing2
              {
              OFFSET -2.470 0.000 0.000
              CHANNELS 6 Xposition Yposition Zposition Zrotation Xrotation Yrotation
                JOINT RightHandRing3
                {
                OFFSET -2.210 0.000 0.000
                CHANNELS 6 Xposition Yposition Zposition Zrotation Xrotation Yrotation
                  JOINT RightHandRing4
                  {
                  OFFSET -1.800 0.000 0.000
                  CHANNELS 6 Xposition Yposition Zposition Zrotation Xrotation Yrotation
                  }
                }
              }
            }
            JOINT RightHandPinky1
            {
            OFFSET -9.350 0.660 -2.720
            CHANNELS 6 Xposition Yposition Zposition Zrotation Xrotation Yrotation
              JOINT RightHandPinky2
              {
              OFFSET -1.630 0.000 0.000
              CHANNELS 6 Xposition Yposition Zposition Zrotation Xrotation Yrotation
                JOINT RightHandPinky3
                {
                OFFSET -1.710 0.000 0.000
                CHANNELS 6 Xposition Yposition Zposition Zrotation Xrotation Yrotation
                  JOINT RightHandPinky4
                  {
                  OFFSET -1.800 0.000 0.000
                  CHANNELS 6 Xposition Yposition Zposition Zrotation Xrotation Yrotation
                  }
                }
              }
            }
          }
        }
      }
    }
    JOINT Neck
    {
      OFFSET -0.000 25.762 0.000
      CHANNELS 6 Xposition Yposition Zposition Zrotation Xrotation Yrotation
      JOINT Head
      {
        OFFSET -0.000 28.247 -0.000
        CHANNELS 6 Xposition Yposition Zposition Zrotation Xrotation Yrotation
        End Site
        {
          OFFSET -0.000 0.113 -0.000
        }
      }
    }
  }
}
MOTION
Frames:	4
Frame Time:	0.0333333
48.2279 40.274 -261.557 0.502499 10.9948 -19.8363 7.57108 -7.40437 1.93868 18.4168 -3.36734 2.53842 0 -49.5844 2.38419e-05 -0.242518 3.56094 0.0150606 2.98023e-06 -40.8867 -2.38419e-05 14.4526 1.78724 8.14784 -7.20885 -7.55013 2.29685 -13.1295 -13.0984 -2.03845 1.19209e-05 -47.7084 4.76837e-05 15.1823 9.61825 -1.73189e-06 5.96046e-06 -45.4711 -2.38419e-05 -32.3315 11.0309 -12.9951 8.9407e-06 5.81747 -5.81748 1.17554 -7.67447 -0.599962 -2.98023e-06 25.7619 -4.76837e-05 -3.57037 8.96462e-06 -5.54139 17.0833 -1.78814e-05 0 -66.274 37.195 3.75651 23.7357 -1.19209e-05 1.19209e-05 -8.81967e-06 -1.19528e-05 -71.5053 24.6622 0 0 -11.9863 -0.539336 -0.934588 0.0062 0.0497 0.0339 0 0 0 0 0.0215 0 0 0 0 0 0.022 0 0 0 0 0 0.017 0 0 0 0 -0.0068 0.0873 0.0207 0 0 0 0 0.0267 0 0 0 0 0 0.0213 0 0 0 0 0 0.018 0 0 0 0 -0.0067 0.0922 0.0055 0 0 0 0 0.0266 0 0 0 0 0 0.0228 0 0 0 0 0 0.015 0 0 0 0 -0.0067 0.0925 -0.0113 0 0 0 0 0.0247 0 0 0 0 0 0.0221 0 0 0 0 0 0.018 0 0 0 0 -0.0066 0.0935 -0.0272 0 0 0 0 0.0163 0 0 0 0 0 0.0171 0 0 0 0 0 0.018 0 0 0 0 -2.98023e-06 25.7619 -4.76837e-05 -0.80447 -1.92099e-06 5.30452 -17.8438 -5.96046e-06 2.38419e-05 77.5098 14.5216 0.873539 -22.6393 2.98023e-06 -4.76837e-05 -7.86611e-07 3.57518e-06 68.5971 -26.6445 1.49012e-06 0 13.1266 0.0502523 1.9162 -0.0062 0.0497 0.0339 31.9943 0 0 0 0.0215 0 0 -31.9943 0 0 0.022 0 0 -31.9943 0 0 0.017 0 0 0 0 0.0068 0.0873 0.0207 31.9943 0 0 0 0.0267 0 56.8787 0 0 0 0.0213 0 63.9886 0 0 0 0.018 0 0 0 0 0.0067 0.0922 0.0055 31.9943 0 0 0 0.0266 0 56.8787 0 0 0 0.0228 0 63.9886 0 0 0 0.015 0 0 0 0 0.0067 0.0925 -0.0113 31.9943 0 0 0 0.0247 0 56.8787 0 0 0 0.0221 0 63.9886 0 0 0 0.018 0 0 0 0 0.0066 0.0935 -0.0272 31.9943 0 0 0 0.0163 0 56.8787 0 0 0 0.0171 0 63.9886 0 0 0 0.018 0 0 0 0 -2.98023e-06 25.7619 -4.76837e-05 4.68475 3.3769 -0.276563 -1.19209e-05 28.2076 2.38419e-05 9.71168e-06 -1.06722e-05 6.83019e-06 
46.515 40.1353 -262.069 0.309081 11.8903 -20.9228 7.41813 -7.30481 1.91717 19.3244 -4.71256 3.98427 -8.9407e-06 -48.9564 -2.38419e-05 1.80152 4.96948 -0.156112 -2.98023e-06 -42.0163 4.76837e-05 11.901 -0.490446 7.3574 -7.08334 -7.48999 2.49665 -12.0188 -14.3508 -1.56547 -1.78814e-05 -47.4354 2.38419e-05 16.3437 10.1048 8.67226e-06 0 -45.7805 2.38419e-05 -34.026 12.597 -13.0649 0 5.7831 -5.78313 1.08395 -8.60944 -0.296117 -1.19209e-05 25.7619 7.15256e-05 -3.06969 1.06722e-05 -5.52403 16.8361 -5.96046e-06 -2.38419e-05 -66.9111 37.4341 4.14904 23.57 5.96046e-05 0 -2.57999e-05 -5.12264e-06 -75.0477 25.2459 -1.19209e-05 -2.98023e-06 -9.95955 -0.686318 3.77536 0.0062 0.0497 0.0339 0 0 0 0 0.0215 0 0 0 0 0 0.022 0 0 0 0 0 0.017 0 0 0 0 -0.0068 0.0873 0.0207 0 0 0 0 0.0267 0 0 0 0 0 0.0213 0 0 0 0 0 0.018 0 0 0 0 -0.0067 0.0922 0.0055 0 0 0 0 0.0266 0 0 0 0 0 0.0228 0 0 0 0 0 0.015 0 0 0 0 -0.0067 0.0925 -0.0113 0 0 0 0 0.0247 0 0 0 0 0 0.0221 0 0 0 0 0 0.018 0 0 0 0 -0.0066 0.0935 -0.0272 0 0 0 0 0.0163 0 0 0 0 0 0.0171 0 0 0 0 0 0.018 0 0 0 0 -1.19209e-05 25.7619 7.15256e-05 -0.403149 1.28066e-06 5.18101 -17.9474 1.78814e-05 -4.76837e-05 76.0072 16.4437 -1.55039 -21.9764 -7.45058e-06 4.76837e-05 -3.94244e-06 7.04363e-06 73.7224 -27.2652 -4.47035e-06 -1.19209e-05 10.9609 0.105396 2.70869 -0.0062 0.0497 0.0339 38.0905 0 0 0 0.0215 0 0 -38.0905 0 0 0.022 0 0 -38.0905 0 0 0.017 0 0 0 0 0.0068 0.0873 0.0207 38.0905 0 0 0 0.0267 0 67.7164 0 0 0 0.0213 0 76.181 0 0 0 0.018 0 0 0 0 0.0067 0.0922 0.0055 38.0905 0 0 0 0.0266 0 67.7164 0 0 0 0.0228 0 76.181 0 0 0 0.015 0 0 0 0 0.0067 0.0925 -0.0113 38.0905 0 0 0 0.0247 0 67.7164 0 0 0 0.0221 0 76.181 0 0 0 0.018 0 0 0 0 0.0066 0.0935 -0.0272 38.0905 0 0 0 0.0163 0 67.7164 0 0 0 0.0171 0 76.181 0 0 0 0.018 0 0 0 0 -1.19209e-05 25.7619 7.15256e-05 5.2559 3.77017 -0.34656 2.98023e-06 28.1918 -2.38419e-05 9.8184e-06 -9.39151e-06 0 
44.8133 40.076 -262.596 0.178172 12.8622 -22.019 7.27087 -7.19254 1.9345 20.3078 -6.66289 5.41543 1.49012e-05 -48.6209 7.15256e-05 3.66259 7.60348 -0.485263 -5.96046e-06 -43.1097 0 10.7735 -1.86483 6.98032 -6.95303 -7.43553 2.66578 -10.6609 -15.4438 -1.16162 -1.19209e-05 -47.1655 2.38419e-05 16.9775 10.2273 -1.73512e-06 0 -45.9712 -7.15256e-05 -35.2933 13.7279 -13.0812 5.96046e-06 5.74021 -5.74017 0.984723 -9.63452 -0.0497909 -1.19209e-05 25.7619 -9.53674e-05 -2.68313 1.10991e-05 -5.29498 16.7454 1.78814e-05 7.15256e-05 -67.4947 37.5923 4.4395 23.4003 2.38419e-05 1.19209e-05 -8.03287e-06 -3.41509e-06 -78.2489 25.8351 -2.38419e-05 -7.45058e-07 -6.56607 -0.60806 6.88912 0.0062 0.0497 0.0339 0 0 0 0 0.0215 0 0 0 0 0 0.022 0 0 0 0 0 0.017 0 0 0 0 -0.0068 0.0873 0.0207 0 0 0 0 0.0267 0 0 0 0 0 0.0213 0 0 0 0 0 0.018 0 0 0 0 -0.0067 0.0922 0.0055 0 0 0 0 0.0266 0 0 0 0 0 0.0228 0 0 0 0 0 0.015 0 0 0 0 -0.0067 0.0925 -0.0113 0 0 0 0 0.0247 0 0 0 0 0 0.0221 0 0 0 0 0 0.018 0 0 0 0 -0.0066 0.0935 -0.0272 0 0 0 0 0.0163 0 0 0 0 0 0.0171 0 0 0 0 0 0.018 0 0 0 0 -1.19209e-05 25.7619 -9.53674e-05 0.0502992 3.84198e-06 4.97174 -17.8311 -5.96046e-06 4.76837e-05 76.831 15.947 -2.1517 -21.7742 2.98023e-06 2.38419e-05 1.19278e-05 9.79171e-06 75.8757 -27.6275 6.70552e-06 -2.38419e-05 5.17412 0.157927 6.14975 -0.0062 0.0497 0.0339 42.6504 0 0 0 0.0215 0 0 -42.6504 0 0 0.022 0 0 -42.6504 0 0 0.017 0 0 0 0 0.0068 0.0873 0.0207 42.6504 0 0 0 0.0267 0 75.823 0 0 0 0.0213 0 85.3009 0 0 0 0.018 0 0 0 0 0.0067 0.0922 0.0055 42.6504 0 0 0 0.0266 0 75.823 0 0 0 0.0228 0 85.3009 0 0 0 0.015 0 0 0 0 0.0067 0.0925 -0.0113 42.6504 0 0 0 0.0247 0 75.823 0 0 0 0.0221 0 85.3009 0 0 0 0.018 0 0 0 0 0.0066 0.0935 -0.0272 42.6504 0 0 0 0.0163 0 75.823 0 0 0 0.0171 0 85.3009 0 0 0 0.018 0 0 0 0 -1.19209e-05 25.7619 -9.53674e-05 5.93342 4.04292 -0.419814 0 28.1652 2.38419e-05 1.13125e-05 -1.06722e-05 -3.41509e-06 
44.8133 40.076 -262.596 0.178172 12.8622 -22.019 7.27087 -7.19254 1.9345 20.3078 -6.66289 5.41543 1.49012e-05 -48.6209 7.15256e-05 3.66259 7.60348 -0.485263 -5.96046e-06 -43.1097 0 10.7735 -1.86483 6.98032 -6.95303 -7.43553 2.66578 -10.6609 -15.4438 -1.16162 -1.19209e-05 -47.1655 2.38419e-05 16.9775 10.2273 -1.73512e-06 0 -45.9712 -7.15256e-05 -35.2933 13.7279 -13.0812 5.96046e-06 5.74021 -5.74017 0.984723 -9.63452 -0.0497909 -1.19209e-05 25.7619 -9.53674e-05 -2.68313 1.10991e-05 -5.29498 16.7454 1.78814e-05 7.15256e-05 -67.4947 37.5923 4.4395 23.4003 2.38419e-05 1.19209e-05 -8.03287e-06 -3.41509e-06 -78.2489 25.8351 -2.38419e-05 -7.45058e-07 -6.56607 -0.60806 6.88912 0.0062 0.0497 0.0339 0 0 0 0 0.0215 0 0 0 0 0 0.022 0 0 0 0 0 0.017 0 0 0 0 -0.0068 0.0873 0.0207 0 0 0 0 0.0267 0 0 0 0 0 0.0213 0 0 0 0 0 0.018 0 0 0 0 -0.0067 0.0922 0.0055 0 0 0 0 0.0266 0 0 0 0 0 0.0228 0 0 0 0 0 0.015 0 0 0 0 -0.0067 0.0925 -0.0113 0 0 0 0 0.0247 0 0 0 0 0 0.0221 0 0 0 0 0 0.018 0 0 0 0 -0.0066 0.0935 -0.0272 0 0 0 0 0.0163 0 0 0 0 0 0.0171 0 0 0 0 0 0.018 0 0 0 0 -1.19209e-05 25.7619 -9.53674e-05 0.0502992 3.84198e-06 4.97174 -17.8311 -5.96046e-06 4.76837e-05 76.831 15.947 -2.1517 -21.7742 2.98023e-06 2.38419e-05 1.19278e-05 9.79171e-06 75.8757 -27.6275 6.70552e-06 -2.38419e-05 5.17412 0.157927 6.14975 -0.0062 0.0497 0.0339 42.6504 0 0 0 0.0215 0 0 -42.6504 0 0 0.022 0 0 -42.6504 0 0 0.017 0 0 0 0 0.0068 0.0873 0.0207 42.6504 0 0 0 0.0267 0 75.823 0 0 0 0.0213 0 85.3009 0 0 0 0.018 0 0 0 0 0.0067 0.0922 0.0055 42.6504 0 0 0 0.0266 0 75.823 0 0 0 0.0228 0 85.3009 0 0 0 0.015 0 0 0 0 0.0067 0.0925 -0.0113 42.6504 0 0 0 0.0247 0 75.823 0 0 0 0.0221 0 85.3009 0 0 0 0.018 0 0 0 0 0.0066 0.0935 -0.0272 42.6504 0 0 0 0.0163 0 75.823 0 0 0 0.0171 0 85.3009 0 0 0 0.018 0 0 0 0 -1.19209e-05 25.7619 -9.53674e-05 5.93342 4.04292 -0.419814 0 28.1652 2.38419e-05 1.13125e-05 -1.06722e-05 -3.41509e-06 
